<svg width="50" height="24" viewBox="0 0 50 24" fill="none" xmlns="http://www.w3.org/2000/svg">
<rect width="50" height="24" rx="12" fill="#555555"/>
<path d="M20.7712 15.5776C20.6283 15.4016 20.3883 15.3365 20.1771 15.4123C19.5851 15.6245 18.9429 15.7333 18.2667 15.7333C15.0315 15.7333 12.4 13.1008 12.4 9.86667C12.4 7.92 13.3611 6.10773 14.9707 5.0176C15.1531 4.89387 15.2405 4.67093 15.1915 4.45653C15.1424 4.24213 14.9664 4.08 14.7477 4.048C14.4981 4.01173 14.2496 4 14 4C9.58827 4 6 7.58827 6 12C6 16.4117 9.58827 20 14 20C16.8 20 19.3472 18.5771 20.8117 16.1941C20.9301 16.0011 20.9131 15.7547 20.7712 15.5776Z" fill="#FFF069"/>
<path d="M45.8699 13.4253L44.1584 11.9155L45.8094 10.3405C45.87 10.2827 45.895 10.1971 45.8749 10.1159C45.8549 10.0347 45.7928 9.97041 45.7121 9.94709L43.5147 9.31297L44.3269 7.18622C44.3567 7.10809 44.3423 7.02009 44.2892 6.95531C44.2361 6.89056 44.1523 6.85891 44.0693 6.87228L41.8107 7.23641L41.627 4.96887C41.6203 4.88556 41.5694 4.81216 41.4934 4.77634C41.4175 4.74053 41.3281 4.74769 41.2589 4.79513L39.3756 6.08706L38.2316 4.11694C38.1896 4.04456 38.1119 4 38.0279 4C37.9438 4 37.8662 4.04456 37.8241 4.11694L36.5109 6.37844L34.2394 5.06741C34.1666 5.02544 34.0769 5.02525 34.0041 5.06684C33.9312 5.10844 33.8862 5.18556 33.886 5.26912L33.8805 7.54397L31.6003 7.35603C31.5167 7.34916 31.4355 7.38719 31.3876 7.45584C31.3397 7.5245 31.3323 7.61337 31.3682 7.68894L32.3445 9.74628L30.2034 10.5488C30.1248 10.5783 30.068 10.6473 30.0543 10.7297C30.0406 10.8122 30.0723 10.8956 30.1373 10.9486L31.9066 12.3908L30.3187 14.0286C30.2604 14.0888 30.2388 14.1753 30.262 14.2556C30.2852 14.3359 30.3498 14.3978 30.4313 14.4179L32.6518 14.9664L31.9238 17.123C31.8971 17.2022 31.9149 17.2896 31.9705 17.3523C32.0262 17.4149 32.1112 17.4433 32.1935 17.4267L34.436 16.9753L34.7086 19.234C34.7185 19.317 34.7724 19.3883 34.8496 19.4212C34.9269 19.4541 35.0159 19.4435 35.0832 19.3934L36.9143 18.0294L38.1348 19.8908C38.178 19.9589 38.2532 20 38.3338 20C38.3368 20 38.3399 19.9999 38.343 19.9998C38.4269 19.9965 38.5028 19.949 38.542 19.875L39.6078 17.9249L41.5403 19.1428C41.6113 19.1876 41.7008 19.1912 41.7754 19.1525C41.8498 19.1138 41.8978 19.0384 41.9013 18.9549L41.996 16.682L44.2671 16.9583C44.3503 16.9684 44.433 16.9335 44.4836 16.8668C44.5341 16.8 44.545 16.7115 44.5121 16.6346L43.6173 14.5409L45.788 13.8221C45.8678 13.7957 45.9273 13.729 45.9442 13.6471C45.9611 13.5653 45.9327 13.4807 45.8699 13.4253Z" fill="#FFA600"/>
<path d="M37.9484 16.8012C40.6248 16.8012 42.7944 14.6333 42.7944 11.9591C42.7944 9.28484 40.6248 7.11694 37.9484 7.11694C35.2721 7.11694 33.1025 9.28484 33.1025 11.9591C33.1025 14.6333 35.2721 16.8012 37.9484 16.8012Z" fill="#FFDB2D"/>
<path d="M37.9485 7.11697C37.8271 7.11697 37.7069 7.12156 37.5878 7.13035C40.0956 7.31475 42.0729 9.40613 42.0729 11.9591C42.0729 14.5121 40.0956 16.6035 37.5878 16.7879C37.7069 16.7967 37.8271 16.8013 37.9485 16.8013C40.6248 16.8013 42.7944 14.6334 42.7944 11.9592C42.7944 9.28488 40.6248 7.11697 37.9485 7.11697Z" fill="#FFCA00"/>
<circle cx="12" cy="12" r="12" fill="white"/>
</svg>
